{"title":"Legende van Ga'Hoole 2010 DVDrip Dutch Klam","uid":6191773,"size":1474042203,"categoryP":"video","categoryS":"movies","magnet":"?xt=urn:btih:651ad2a6ad142d27296f560ed4b35e2049e13bb1&amp;dn=Legende+van+Ga%5C%27Hoole+2010+DVDrip+Dutch+Klam&amp;tr=udp%3A%2F%2Ftracker.openbittorrent.com%3A80&amp;tr=udp%3A%2F%2Fopen.demonii.com%3A1337&amp;tr=udp%3A%2F%2Ftracker.coppersurfer.tk%3A6969&amp;tr=udp%3A%2F%2Fexodus.desync.com%3A6969","seeders":0,"leechers":1,"uploader":"Klambake","files":-1,"time":1298315356,"description":"Nederlands gesproken\n\nSoren, een jonge uil, wordt gekidnapt door de uilen van St. Aggie's, een weeshuis waar jonge uilen gehersenspoeld worden tot meedogenloze soldaten. Soren en een paar andere uilen weten uit het weeshuis te ontsnappen en vluchten naar het eiland 'Ga'Hoole', om een wijze groep uilen bij te staan in hun strijd tegen de soldaten van St. Aggie's.\n\nGeneral:\n\nComplete name                    : Legende van Ga'Hoole\\Legende van Ga'Hoole.avi\nFormat                           : AVI\nFormat/Info                      : Audio Video Interleave\nFile size                        : 1.37 GiB\nDuration                         : 1h 36mn\nOverall bit rate                 : 2 030 Kbps\n\nVideo:\n\nFormat                           : MPEG-4 Visual\nFormat profile                   : Simple@L3\nFormat settings, BVOP            : No\nFormat settings, QPel            : No\nFormat settings, GMC             : No warppoints\nFormat settings, Matrix          : Default (H.263)\nCodec ID                         : XVID\nCodec ID/Hint                    : XviD\nDuration                         : 1h 36mn\nBit rate                         : 1 572 Kbps\nWidth                            : 704 pixels\nHeight                           : 396 pixels\nDisplay aspect ratio             : 16:9\nFrame rate                       : 23.976 fps\nColor space                      : YUV\nChroma subsampling               : 4:2:0\nBit depth                        : 8 bits\nScan type                        : Progressive\nBits/(Pixel*Frame)               : 0.235\nStream size                      : 1.06 GiB (77%)\nWriting library                  : XviD 1.1.2 (UTC 2006-11-01)\n\nAudio:\n\nFormat                           : AC-3\nFormat/Info                      : Audio Coding 3\nMode extension                   : CM (complete main)\nCodec ID                         : 2000\nDuration                         : 1h 36mn\nBit rate mode                    : Constant\nBit rate                         : 448 Kbps\nChannel(s)                       : 6 channels\nChannel positions                : Front: L C R, Side: L R, LFE\nSampling rate                    : 48.0 KHz\nBit depth                        : 16 bits\nStream size                      : 310 MiB (22%)\nAlignment                        : Aligned on interleaves\nInterleave, duration             : 32 ms (0.77 video frame)","torrent":{"xt":"urn:btih:651ad2a6ad142d27296f560ed4b35e2049e13bb1","amp;dn":"Legende+van+Ga%5C%27Hoole+2010+DVDrip+Dutch+Klam","amp;tr":["udp%3A%2F%2Ftracker.openbittorrent.com%3A80","udp%3A%2F%2Fopen.demonii.com%3A1337","udp%3A%2F%2Ftracker.coppersurfer.tk%3A6969","udp%3A%2F%2Fexodus.desync.com%3A6969"],"infoHash":"651ad2a6ad142d27296f560ed4b35e2049e13bb1","infoHashBuffer":{"type":"Buffer","data":[101,26,210,166,173,20,45,39,41,111,86,14,212,179,94,32,73,225,59,177]},"announce":[],"urlList":[]}}